<svg width="30" height="18" viewBox="0 0 30 18" fill="none" xmlns="http://www.w3.org/2000/svg">
<rect width="30" height="18" rx="2.40399" fill="#045E7B"/>
<mask id="mask0_1155_2983" style="mask-type:luminance" maskUnits="userSpaceOnUse" x="17" y="7" width="9" height="8">
<path fill-rule="evenodd" clip-rule="evenodd" d="M17.9963 7.84387H26V14.1059H17.9963V7.84387Z" fill="white"/>
</mask>
<g mask="url(#mask0_1155_2983)">
<path fill-rule="evenodd" clip-rule="evenodd" d="M25.3033 7.8825C25.1145 7.8825 24.9433 7.95751 24.8178 8.079L22.0242 10.3269L21.4951 9.90707L19.2177 8.10023L19.1771 8.06575C19.1424 8.03723 19.1379 8.03364 19.082 7.99322C18.9596 7.9026 18.8223 7.84387 18.6642 7.84387C18.2953 7.84387 17.9963 8.15053 17.9963 8.52861C17.9963 8.73938 18.0892 8.9278 18.2352 9.05334V9.05345L18.2363 9.05412C18.2425 9.05951 18.2489 9.06468 18.2554 9.06984L20.8489 11.1949L21.3045 11.5682L21.3063 13.4274L21.3064 13.4307C21.3098 13.8042 21.6146 14.1059 21.9902 14.1059C22.3611 14.1059 22.6627 13.8118 22.6737 13.4448L22.6749 13.4425V11.5695L25.4387 9.36763L25.4701 9.34136L25.5509 9.2741C25.568 9.25995 25.5906 9.24288 25.6062 9.22761L25.7152 9.13665C25.8804 8.99416 26.0001 8.80664 26.0001 8.57689C26.0001 8.19343 25.6881 7.8825 25.3033 7.8825Z" fill="#00BCD4"/>
</g>
<mask id="mask1_1155_2983" style="mask-type:luminance" maskUnits="userSpaceOnUse" x="11" y="7" width="8" height="8">
<path fill-rule="evenodd" clip-rule="evenodd" d="M11.0857 7.84387H18.8862V14.112H11.0857V7.84387Z" fill="white"/>
</mask>
<g mask="url(#mask1_1155_2983)">
<path fill-rule="evenodd" clip-rule="evenodd" d="M18.7512 13.0411L15.4699 8.13324C15.3444 7.95829 15.1359 7.84387 14.9037 7.84387C14.5216 7.84387 14.2118 8.15267 14.2118 8.53333C14.2118 8.68694 14.2622 8.82865 14.3473 8.94318V8.94329L15.9004 11.1717L12.9467 11.1668C12.7728 11.1717 12.4985 11.2809 12.3001 11.5259L11.26 12.9985C11.1517 13.1167 11.0857 13.2739 11.0857 13.4466C11.0857 13.8142 11.3848 14.1121 11.7535 14.1121C11.9744 14.1121 12.1703 14.0051 12.2917 13.8404L12.3004 13.8354L13.2379 12.5931H16.888L17.6424 13.7698C17.7552 13.9738 17.9731 14.1121 18.2232 14.1121C18.5894 14.1121 18.8862 13.8163 18.8862 13.4515C18.8862 13.3138 18.844 13.1859 18.7716 13.0801C18.7655 13.066 18.7588 13.0528 18.7512 13.0411Z" fill="#00BCD4"/>
</g>
<mask id="mask2_1155_2983" style="mask-type:luminance" maskUnits="userSpaceOnUse" x="4" y="7" width="8" height="8">
<path fill-rule="evenodd" clip-rule="evenodd" d="M4 7.84363H11.7147V14.0952H4V7.84363Z" fill="white"/>
</mask>
<g mask="url(#mask2_1155_2983)">
<path fill-rule="evenodd" clip-rule="evenodd" d="M9.79706 7.84368C9.79233 7.84357 9.78748 7.84368 9.78275 7.84368H4.69295C4.31025 7.84368 4 8.15281 4 8.53414C4 8.67304 4.04147 8.80195 4.11224 8.9102C4.20871 9.04595 4.34405 9.14331 4.51647 9.20125C4.57293 9.21607 4.63187 9.22472 4.69295 9.22472H7.89761H9.71547L9.82749 9.22449H9.8382C9.85645 9.22461 9.87448 9.2255 9.89229 9.22719C10.1749 9.25616 10.3954 9.49399 10.3954 9.78324C10.3954 10.0895 10.1482 10.3377 9.84191 10.3418L9.7956 10.3422H7.89536H4.71256H4.65926C4.2477 10.3422 4 10.6611 4 11.0243V13.4117C4 13.789 4.30731 14.0952 4.68596 14.0952C5.05571 14.0952 5.35694 13.8026 5.37069 13.4375V13.386V11.7309H9.79808L9.81735 11.7298C9.8178 11.7298 9.81825 11.7297 9.81881 11.7295C10.8708 11.701 11.7148 10.8424 11.7148 9.78729C11.7148 8.72492 10.8591 7.86086 9.79706 7.84368Z" fill="#00BCD4"/>
</g>
<path fill-rule="evenodd" clip-rule="evenodd" d="M4.81825 5.47508H5.48719L5.15351 4.45583L4.81825 5.47508ZM5.43714 3.97607L6.30375 6.37086H5.78469L5.62117 5.87858H4.68795L4.53109 6.37086H4.00977L4.86567 3.97607H5.43714Z" fill="white"/>
<path fill-rule="evenodd" clip-rule="evenodd" d="M8.05727 5.9385C8.3283 5.9385 8.45655 5.84732 8.45655 5.62836C8.45655 5.39468 8.3283 5.31125 8.05446 5.31125H7.47285V5.9385H8.05727ZM8.03766 4.9019C8.27455 4.9019 8.38882 4.82532 8.38882 4.6415C8.38882 4.456 8.2724 4.39244 8.03395 4.39244H7.47285V4.9019H8.03766ZM6.9978 3.97644H8.13105C8.62915 3.97644 8.88621 4.1926 8.88621 4.5819C8.88621 4.82153 8.79323 4.98524 8.59918 5.0753C8.85003 5.17524 8.97084 5.36141 8.97084 5.64247C8.97084 6.09814 8.66262 6.37111 8.09476 6.37111H6.9978V3.97644Z" fill="white"/>
<path fill-rule="evenodd" clip-rule="evenodd" d="M10.268 5.47508H10.937L10.6029 4.45583L10.268 5.47508ZM10.8867 3.97607L11.7537 6.37086H11.2352L11.0709 5.87858H10.1381L9.98074 6.37086H9.46021L10.3151 3.97607H10.8867Z" fill="white"/>
<path fill-rule="evenodd" clip-rule="evenodd" d="M11.9763 4.50701H12.4405V3.5H11.9763V4.50701Z" fill="#EB2227"/>
</svg>
