<svg width="31" height="32" viewBox="0 0 31 32" fill="none" xmlns="http://www.w3.org/2000/svg">
<g filter="url(#filter0_d_99_5725)">
<path d="M28 14.0625C28 14.4045 27.9327 14.7431 27.8018 15.0591C27.671 15.375 27.4792 15.6621 27.2375 15.9039C26.9957 16.1457 26.7087 16.3375 26.3929 16.4684C26.077 16.5993 25.7385 16.6666 25.3966 16.6666H21.1936L16.7928 23.4239C16.5219 23.9045 16.1277 24.304 15.6507 24.5811C15.1738 24.8582 14.6315 25.0028 14.08 25C13.6375 25.0001 13.2015 24.8929 12.8095 24.6876C12.4174 24.4823 12.081 24.185 11.8289 23.8212C11.5769 23.4573 11.4168 23.0378 11.3623 22.5985C11.3078 22.1593 11.3606 21.7133 11.5162 21.2989L13.4406 16.6666H9.25534C8.52104 16.6667 7.79978 16.4726 7.16464 16.104C6.5295 15.7354 6.00306 15.2054 5.63866 14.5677L3.21539 10.5833C3.11185 10.4113 3.0438 10.2203 3.01527 10.0216C2.98673 9.82289 2.99828 9.62045 3.04924 9.42626C3.1002 9.23207 3.18954 9.05006 3.31197 8.89098C3.43441 8.73189 3.58747 8.59895 3.76211 8.5C4.03925 8.35466 4.35552 8.30154 4.66492 8.34837C4.97433 8.39521 5.26072 8.53955 5.48246 8.76042L6.95808 10.2375C7.73908 11.019 8.79841 11.4581 9.90307 11.4583H25.3966C25.7385 11.4583 26.077 11.5257 26.3929 11.6566C26.7087 11.7874 26.9957 11.9793 27.2375 12.2211C27.4792 12.4629 27.671 12.75 27.8018 13.0659C27.9327 13.3819 28 13.7205 28 14.0625ZM21.4717 9.375L16.7855 1.57607C16.515 1.09587 16.1212 0.696619 15.6449 0.419556C15.1685 0.142492 14.6269 -0.00233723 14.0758 2.85252e-05C13.6334 0.000149033 13.1976 0.107483 12.8057 0.312848C12.4138 0.518213 12.0774 0.815494 11.8254 1.17925C11.5734 1.54302 11.4133 1.96243 11.3587 2.40161C11.3041 2.84078 11.3567 3.28665 11.512 3.70106L13.7176 9.375H21.4717Z" fill="url(#paint0_linear_99_5725)"/>
</g>
<defs>
<filter id="filter0_d_99_5725" x="0" y="0" width="31" height="32" filterUnits="userSpaceOnUse" color-interpolation-filters="sRGB">
<feFlood flood-opacity="0" result="BackgroundImageFix"/>
<feColorMatrix in="SourceAlpha" type="matrix" values="0 0 0 0 0 0 0 0 0 0 0 0 0 0 0 0 0 0 127 0" result="hardAlpha"/>
<feOffset dy="4"/>
<feGaussianBlur stdDeviation="1.5"/>
<feComposite in2="hardAlpha" operator="out"/>
<feColorMatrix type="matrix" values="0 0 0 0 0.705882 0 0 0 0 0.964706 0 0 0 0 1 0 0 0 0.46 0"/>
<feBlend mode="normal" in2="BackgroundImageFix" result="effect1_dropShadow_99_5725"/>
<feBlend mode="normal" in="SourceGraphic" in2="effect1_dropShadow_99_5725" result="shape"/>
</filter>
<linearGradient id="paint0_linear_99_5725" x1="3.51908" y1="-4.43039" x2="29.55" y2="-3.19359" gradientUnits="userSpaceOnUse">
<stop stop-color="#3BDAFF"/>
<stop offset="1" stop-color="#0B9BFF"/>
</linearGradient>
</defs>
</svg>
