<svg width="25" height="26" viewBox="0 0 25 26" fill="none" xmlns="http://www.w3.org/2000/svg">
<path d="M20.9785 0.25C18.7578 0.25 16.957 2.05351 16.957 4.27904C16.957 6.50457 18.7572 8.30808 20.9785 8.30808C23.1999 8.30808 25 6.50457 25 4.27904C25 2.05351 23.1999 0.25 20.9785 0.25ZM22.7415 4.82303C22.6647 4.85825 22.5846 4.85825 22.5052 4.85825C21.9844 4.85955 21.4642 4.86151 20.9434 4.85825C20.6029 4.85629 20.4323 4.6841 20.4297 4.341C20.4264 3.93138 20.429 3.52111 20.429 3.11149C20.429 2.72013 20.4284 2.32877 20.429 1.93741C20.4297 1.57018 20.5931 1.37255 20.8939 1.3719C21.1888 1.3719 21.3685 1.58323 21.3691 1.9348C21.3704 2.54336 21.3737 3.15193 21.3659 3.76049C21.3639 3.89485 21.4036 3.92355 21.5306 3.92029C21.8652 3.91116 22.1999 3.91247 22.5345 3.91899C22.778 3.92355 22.9694 4.07879 23.0098 4.28556C23.0553 4.51972 22.9492 4.72714 22.7415 4.82238V4.82303Z" fill="url(#paint0_linear_881_8587)"/>
<path d="M25.0001 18.9993H7.1902C7.1863 18.9099 7.17914 18.8317 7.17914 18.7534C7.17914 17.2649 7.17653 15.7758 7.17914 14.2873C7.18174 12.6091 8.4988 11.2908 10.1811 11.283C11.1075 11.2784 12.034 11.2824 12.9884 11.2824C12.9936 11.1845 13.0027 11.0991 13.0027 11.0143C13.004 10.3881 13.0014 9.76128 13.004 9.1351C13.006 8.5572 13.3022 8.25977 13.8725 8.25977C15.353 8.25977 16.8334 8.25977 18.3139 8.25977C18.8712 8.25977 19.172 8.55785 19.1752 9.11749C19.1785 9.74367 19.1759 10.3705 19.1759 10.9967C19.1759 11.0841 19.1759 11.1708 19.1759 11.2824C19.4383 11.2824 19.672 11.2824 19.9057 11.2824C20.6218 11.2824 21.3373 11.2771 22.0535 11.2837C23.4487 11.2967 24.6576 12.296 24.9448 13.6631C24.9597 13.7336 24.9812 13.8021 25.0001 13.8719V18.9987V18.9993ZM14.5307 9.77889V11.2693H17.6492V9.77889H14.5307Z" fill="url(#paint1_linear_881_8587)"/>
<path d="M0 9.47759C0.0436198 9.33213 0.0839844 9.18603 0.13151 9.04187C0.511719 7.89063 1.5306 7.16988 2.80794 7.15096C3.18099 7.14509 3.55404 7.15031 3.95964 7.15031C3.95964 7.03681 3.95964 6.94224 3.95964 6.84766C3.95964 4.93587 3.95964 3.02408 3.95964 1.11229C3.95964 0.516776 4.22656 0.25 4.82096 0.25C6.39128 0.25 7.96094 0.25 9.53125 0.25C10.1315 0.25 10.3965 0.51221 10.3971 1.10577C10.3971 3.00973 10.3971 4.91304 10.3971 6.817C10.3971 6.91354 10.3971 7.01072 10.3971 7.12617C11.0514 7.15096 11.6947 7.17509 12.3379 7.19988C12.3587 7.22532 12.3796 7.25141 12.4004 7.27685C11.5553 7.93955 11.4961 8.85141 11.5729 9.81742C11.0775 9.81742 10.6243 9.81676 10.1706 9.81742C8.2474 9.82198 6.53125 11.0535 5.95312 12.8889C5.80924 13.3468 5.72786 13.8432 5.72396 14.3233C5.70247 16.9506 5.71029 19.5786 5.71484 22.2065C5.7168 23.2841 6.05273 24.2488 6.73763 25.0869C6.77734 25.1352 6.80338 25.1946 6.83529 25.2487H2.39258C2.35547 25.2337 2.31901 25.2115 2.2806 25.205C1.55534 25.0856 0.983073 24.7197 0.534505 24.1431C0.248698 23.7752 0.119792 23.3428 0 22.9045C0 18.4286 0 13.9528 0 9.47628V9.47759ZM8.9388 1.69607H5.42904V7.13335H8.9388V1.69607Z" fill="url(#paint2_linear_881_8587)"/>
<path d="M9.76558 25.25C9.36129 25.0902 8.92248 24.9871 8.5605 24.7601C7.66662 24.2005 7.20504 23.361 7.1816 22.2998C7.16858 21.7089 7.17899 21.1172 7.17899 20.4989C7.29032 20.4989 7.37756 20.4989 7.46415 20.4989C13.2285 20.4989 18.9928 20.4989 24.7571 20.4989C24.8378 20.4989 24.9186 20.508 25 20.5126V22.6612C24.9837 22.7062 24.9622 22.7505 24.9524 22.7968C24.7168 23.9174 24.0553 24.6754 22.9915 25.0837C22.8046 25.1554 22.6054 25.1946 22.4121 25.2493H9.76558V25.25Z" fill="url(#paint3_linear_881_8587)"/>
<defs>
<linearGradient id="paint0_linear_881_8587" x1="17.124" y1="-1.17802" x2="25.4988" y2="-0.780858" gradientUnits="userSpaceOnUse">
<stop stop-color="#3BDAFF"/>
<stop offset="1" stop-color="#0B9BFF"/>
</linearGradient>
<linearGradient id="paint1_linear_881_8587" x1="7.54802" y1="6.35655" x2="26.0321" y2="7.81395" gradientUnits="userSpaceOnUse">
<stop stop-color="#3BDAFF"/>
<stop offset="1" stop-color="#0B9BFF"/>
</linearGradient>
<linearGradient id="paint2_linear_881_8587" x1="0.257472" y1="-4.18015" x2="13.1912" y2="-3.87533" gradientUnits="userSpaceOnUse">
<stop stop-color="#3BDAFF"/>
<stop offset="1" stop-color="#0B9BFF"/>
</linearGradient>
<linearGradient id="paint3_linear_881_8587" x1="7.54515" y1="19.6569" x2="25.5742" y2="22.8707" gradientUnits="userSpaceOnUse">
<stop stop-color="#3BDAFF"/>
<stop offset="1" stop-color="#0B9BFF"/>
</linearGradient>
</defs>
</svg>
