<svg width="138" height="125" viewBox="0 0 138 125" fill="none" xmlns="http://www.w3.org/2000/svg">
<rect x="24" y="0.361328" width="90" height="90" rx="45" fill="#00C920"/>
<path d="M52 46.2373L64.7672 62.2438C65.2002 62.7867 66.0412 62.7338 66.4027 62.1408L87 28.3613" stroke="white" stroke-width="10" stroke-linecap="round"/>
<path d="M2.51 117.466C2.26 117.466 2.065 117.396 1.925 117.256C1.795 117.116 1.73 116.921 1.73 116.671V107.581C1.73 107.321 1.8 107.126 1.94 106.996C2.08 106.856 2.275 106.786 2.525 106.786H6.11C7.25 106.786 8.13 107.071 8.75 107.641C9.37 108.201 9.68 108.991 9.68 110.011C9.68 111.041 9.37 111.841 8.75 112.411C8.13 112.971 7.25 113.251 6.11 113.251H3.29V116.671C3.29 116.921 3.225 117.116 3.095 117.256C2.965 117.396 2.77 117.466 2.51 117.466ZM3.29 112.006H5.885C6.635 112.006 7.2 111.841 7.58 111.511C7.97 111.171 8.165 110.671 8.165 110.011C8.165 109.361 7.97 108.871 7.58 108.541C7.2 108.201 6.635 108.031 5.885 108.031H3.29V112.006ZM13.1628 117.496C12.6528 117.496 12.1928 117.396 11.7828 117.196C11.3828 116.996 11.0678 116.726 10.8378 116.386C10.6078 116.046 10.4928 115.661 10.4928 115.231C10.4928 114.691 10.6278 114.266 10.8978 113.956C11.1778 113.636 11.6328 113.411 12.2628 113.281C12.9028 113.141 13.7628 113.071 14.8428 113.071H15.5478V114.001H14.8578C14.1378 114.001 13.5678 114.036 13.1478 114.106C12.7278 114.176 12.4278 114.296 12.2478 114.466C12.0778 114.626 11.9928 114.851 11.9928 115.141C11.9928 115.521 12.1228 115.831 12.3828 116.071C12.6428 116.301 13.0028 116.416 13.4628 116.416C13.8328 116.416 14.1578 116.331 14.4378 116.161C14.7178 115.981 14.9378 115.741 15.0978 115.441C15.2678 115.141 15.3528 114.796 15.3528 114.406V112.681C15.3528 112.111 15.2328 111.701 14.9928 111.451C14.7528 111.201 14.3578 111.076 13.8078 111.076C13.4878 111.076 13.1528 111.116 12.8028 111.196C12.4628 111.276 12.1078 111.411 11.7378 111.601C11.5678 111.681 11.4228 111.706 11.3028 111.676C11.1828 111.646 11.0878 111.581 11.0178 111.481C10.9478 111.371 10.9078 111.256 10.8978 111.136C10.8978 111.006 10.9278 110.881 10.9878 110.761C11.0578 110.641 11.1728 110.551 11.3328 110.491C11.7728 110.281 12.2078 110.131 12.6378 110.041C13.0678 109.951 13.4728 109.906 13.8528 109.906C14.5228 109.906 15.0728 110.011 15.5028 110.221C15.9428 110.431 16.2678 110.751 16.4778 111.181C16.6878 111.611 16.7928 112.166 16.7928 112.846V116.701C16.7928 116.941 16.7328 117.131 16.6128 117.271C16.4928 117.401 16.3178 117.466 16.0878 117.466C15.8678 117.466 15.6928 117.401 15.5628 117.271C15.4328 117.131 15.3678 116.941 15.3678 116.701V115.726H15.5028C15.4228 116.096 15.2728 116.416 15.0528 116.686C14.8428 116.946 14.5778 117.146 14.2578 117.286C13.9378 117.426 13.5728 117.496 13.1628 117.496ZM20.5312 120.166C20.3512 120.166 20.2012 120.116 20.0812 120.016C19.9712 119.926 19.9062 119.801 19.8862 119.641C19.8762 119.491 19.9062 119.326 19.9762 119.146L20.9962 116.851V117.496L18.1912 110.971C18.1212 110.791 18.0962 110.621 18.1162 110.461C18.1362 110.301 18.2112 110.176 18.3412 110.086C18.4712 109.986 18.6462 109.936 18.8662 109.936C19.0562 109.936 19.2062 109.981 19.3162 110.071C19.4262 110.161 19.5262 110.316 19.6162 110.536L21.8812 116.131H21.4612L23.7562 110.536C23.8462 110.306 23.9512 110.151 24.0712 110.071C24.1912 109.981 24.3562 109.936 24.5662 109.936C24.7462 109.936 24.8862 109.986 24.9862 110.086C25.0962 110.176 25.1612 110.301 25.1812 110.461C25.2112 110.611 25.1862 110.776 25.1062 110.956L21.3562 119.581C21.2562 119.811 21.1412 119.966 21.0112 120.046C20.8912 120.126 20.7312 120.166 20.5312 120.166ZM27.3792 117.466C27.1392 117.466 26.9542 117.401 26.8242 117.271C26.6942 117.131 26.6292 116.941 26.6292 116.701V110.701C26.6292 110.451 26.6942 110.261 26.8242 110.131C26.9542 110.001 27.1342 109.936 27.3642 109.936C27.6042 109.936 27.7842 110.001 27.9042 110.131C28.0342 110.261 28.0992 110.451 28.0992 110.701V111.931L27.9342 111.601C28.1342 111.071 28.4442 110.656 28.8642 110.356C29.2842 110.056 29.7892 109.906 30.3792 109.906C30.9892 109.906 31.4842 110.051 31.8642 110.341C32.2442 110.631 32.5042 111.076 32.6442 111.676H32.4342C32.6242 111.126 32.9492 110.696 33.4092 110.386C33.8692 110.066 34.4042 109.906 35.0142 109.906C35.5742 109.906 36.0342 110.016 36.3942 110.236C36.7542 110.446 37.0242 110.771 37.2042 111.211C37.3842 111.641 37.4742 112.186 37.4742 112.846V116.701C37.4742 116.941 37.4042 117.131 37.2642 117.271C37.1342 117.401 36.9492 117.466 36.7092 117.466C36.4692 117.466 36.2842 117.401 36.1542 117.271C36.0242 117.131 35.9592 116.941 35.9592 116.701V112.921C35.9592 112.301 35.8492 111.846 35.6292 111.556C35.4192 111.266 35.0692 111.121 34.5792 111.121C34.0292 111.121 33.5942 111.311 33.2742 111.691C32.9542 112.071 32.7942 112.596 32.7942 113.266V116.701C32.7942 116.941 32.7292 117.131 32.5992 117.271C32.4692 117.401 32.2842 117.466 32.0442 117.466C31.8042 117.466 31.6142 117.401 31.4742 117.271C31.3442 117.131 31.2792 116.941 31.2792 116.701V112.921C31.2792 112.301 31.1742 111.846 30.9642 111.556C30.7542 111.266 30.4042 111.121 29.9142 111.121C29.3642 111.121 28.9292 111.311 28.6092 111.691C28.2992 112.071 28.1442 112.596 28.1442 113.266V116.701C28.1442 117.211 27.8892 117.466 27.3792 117.466ZM43.0273 117.496C42.2273 117.496 41.5373 117.346 40.9573 117.046C40.3873 116.736 39.9423 116.301 39.6223 115.741C39.3123 115.171 39.1573 114.496 39.1573 113.716C39.1573 112.956 39.3123 112.291 39.6223 111.721C39.9323 111.151 40.3573 110.706 40.8973 110.386C41.4373 110.066 42.0523 109.906 42.7423 109.906C43.2523 109.906 43.7073 109.991 44.1073 110.161C44.5073 110.321 44.8473 110.561 45.1273 110.881C45.4173 111.191 45.6323 111.571 45.7723 112.021C45.9223 112.471 45.9973 112.976 45.9973 113.536C45.9973 113.706 45.9473 113.836 45.8473 113.926C45.7473 114.006 45.5973 114.046 45.3973 114.046H40.3573V113.116H44.9773L44.7223 113.326C44.7223 112.826 44.6473 112.401 44.4973 112.051C44.3573 111.701 44.1423 111.436 43.8523 111.256C43.5723 111.066 43.2223 110.971 42.8023 110.971C42.3323 110.971 41.9323 111.081 41.6023 111.301C41.2823 111.521 41.0373 111.826 40.8673 112.216C40.6973 112.606 40.6123 113.061 40.6123 113.581V113.671C40.6123 114.551 40.8173 115.216 41.2273 115.666C41.6473 116.106 42.2523 116.326 43.0423 116.326C43.3423 116.326 43.6573 116.286 43.9873 116.206C44.3273 116.126 44.6473 115.991 44.9473 115.801C45.1173 115.701 45.2673 115.656 45.3973 115.666C45.5373 115.676 45.6473 115.721 45.7273 115.801C45.8173 115.881 45.8723 115.981 45.8923 116.101C45.9123 116.221 45.8923 116.346 45.8323 116.476C45.7723 116.596 45.6673 116.706 45.5173 116.806C45.1773 117.036 44.7823 117.211 44.3323 117.331C43.8823 117.441 43.4473 117.496 43.0273 117.496ZM48.399 117.466C48.159 117.466 47.974 117.401 47.844 117.271C47.714 117.131 47.649 116.941 47.649 116.701V110.701C47.649 110.451 47.714 110.261 47.844 110.131C47.974 110.001 48.154 109.936 48.384 109.936C48.624 109.936 48.804 110.001 48.924 110.131C49.054 110.261 49.119 110.451 49.119 110.701V111.871L48.954 111.601C49.174 111.041 49.519 110.621 49.989 110.341C50.459 110.051 50.999 109.906 51.609 109.906C52.189 109.906 52.669 110.016 53.049 110.236C53.439 110.446 53.729 110.771 53.919 111.211C54.109 111.641 54.204 112.186 54.204 112.846V116.701C54.204 116.941 54.139 117.131 54.009 117.271C53.879 117.401 53.694 117.466 53.454 117.466C53.204 117.466 53.014 117.401 52.884 117.271C52.754 117.131 52.689 116.941 52.689 116.701V112.936C52.689 112.306 52.564 111.846 52.314 111.556C52.074 111.266 51.694 111.121 51.174 111.121C50.564 111.121 50.074 111.311 49.704 111.691C49.344 112.071 49.164 112.581 49.164 113.221V116.701C49.164 117.211 48.909 117.466 48.399 117.466ZM59.4116 117.496C58.8116 117.496 58.3066 117.391 57.8966 117.181C57.4866 116.971 57.1816 116.661 56.9816 116.251C56.7816 115.841 56.6816 115.341 56.6816 114.751V111.211H55.7816C55.5816 111.211 55.4266 111.161 55.3166 111.061C55.2066 110.951 55.1516 110.806 55.1516 110.626C55.1516 110.436 55.2066 110.291 55.3166 110.191C55.4266 110.091 55.5816 110.041 55.7816 110.041H56.6816V108.496C56.6816 108.246 56.7466 108.056 56.8766 107.926C57.0166 107.796 57.2066 107.731 57.4466 107.731C57.6866 107.731 57.8716 107.796 58.0016 107.926C58.1316 108.056 58.1966 108.246 58.1966 108.496V110.041H59.9516C60.1516 110.041 60.3066 110.091 60.4166 110.191C60.5266 110.291 60.5816 110.436 60.5816 110.626C60.5816 110.806 60.5266 110.951 60.4166 111.061C60.3066 111.161 60.1516 111.211 59.9516 111.211H58.1966V114.631C58.1966 115.161 58.3066 115.561 58.5266 115.831C58.7566 116.101 59.1266 116.236 59.6366 116.236C59.8166 116.236 59.9716 116.221 60.1016 116.191C60.2416 116.151 60.3566 116.126 60.4466 116.116C60.5566 116.116 60.6466 116.156 60.7166 116.236C60.7866 116.306 60.8216 116.446 60.8216 116.656C60.8216 116.806 60.7916 116.946 60.7316 117.076C60.6816 117.206 60.5866 117.291 60.4466 117.331C60.3266 117.371 60.1616 117.406 59.9516 117.436C59.7516 117.476 59.5716 117.496 59.4116 117.496ZM69.4152 117.496C68.9552 117.496 68.5052 117.461 68.0652 117.391C67.6252 117.321 67.2102 117.216 66.8202 117.076C66.4302 116.926 66.0802 116.746 65.7702 116.536C65.6202 116.426 65.5152 116.301 65.4552 116.161C65.4052 116.021 65.3902 115.886 65.4102 115.756C65.4402 115.616 65.5002 115.496 65.5902 115.396C65.6802 115.296 65.7902 115.236 65.9202 115.216C66.0502 115.186 66.1952 115.226 66.3552 115.336C66.8052 115.626 67.2802 115.841 67.7802 115.981C68.2802 116.111 68.8252 116.176 69.4152 116.176C70.2652 116.176 70.8902 116.026 71.2902 115.726C71.7002 115.416 71.9052 115.016 71.9052 114.526C71.9052 114.126 71.7602 113.811 71.4702 113.581C71.1802 113.341 70.6952 113.151 70.0152 113.011L68.4102 112.681C67.4602 112.481 66.7502 112.151 66.2802 111.691C65.8202 111.231 65.5902 110.611 65.5902 109.831C65.5902 109.361 65.6852 108.931 65.8752 108.541C66.0752 108.151 66.3502 107.816 66.7002 107.536C67.0502 107.246 67.4702 107.026 67.9602 106.876C68.4502 106.726 68.9852 106.651 69.5652 106.651C70.1852 106.651 70.7652 106.731 71.3052 106.891C71.8552 107.051 72.3452 107.296 72.7752 107.626C72.9052 107.716 72.9902 107.831 73.0302 107.971C73.0802 108.101 73.0902 108.231 73.0602 108.361C73.0402 108.491 72.9852 108.601 72.8952 108.691C72.8052 108.781 72.6902 108.836 72.5502 108.856C72.4102 108.866 72.2552 108.816 72.0852 108.706C71.6952 108.446 71.2952 108.261 70.8852 108.151C70.4852 108.031 70.0402 107.971 69.5502 107.971C69.0602 107.971 68.6302 108.046 68.2602 108.196C67.9002 108.346 67.6202 108.556 67.4202 108.826C67.2302 109.096 67.1352 109.416 67.1352 109.786C67.1352 110.206 67.2702 110.541 67.5402 110.791C67.8102 111.041 68.2602 111.231 68.8902 111.361L70.4802 111.691C71.4802 111.901 72.2252 112.226 72.7152 112.666C73.2052 113.106 73.4502 113.691 73.4502 114.421C73.4502 114.891 73.3552 115.316 73.1652 115.696C72.9752 116.066 72.7052 116.386 72.3552 116.656C72.0052 116.926 71.5802 117.136 71.0802 117.286C70.5902 117.426 70.0352 117.496 69.4152 117.496ZM77.6662 117.496C77.0762 117.496 76.5812 117.386 76.1812 117.166C75.7912 116.946 75.4962 116.621 75.2962 116.191C75.1062 115.751 75.0112 115.201 75.0112 114.541V110.701C75.0112 110.441 75.0762 110.251 75.2062 110.131C75.3362 110.001 75.5212 109.936 75.7612 109.936C76.0012 109.936 76.1862 110.001 76.3162 110.131C76.4562 110.251 76.5262 110.441 76.5262 110.701V114.556C76.5262 115.146 76.6462 115.581 76.8862 115.861C77.1262 116.141 77.5062 116.281 78.0262 116.281C78.5962 116.281 79.0562 116.091 79.4062 115.711C79.7662 115.321 79.9462 114.811 79.9462 114.181V110.701C79.9462 110.441 80.0112 110.251 80.1412 110.131C80.2712 110.001 80.4612 109.936 80.7112 109.936C80.9512 109.936 81.1362 110.001 81.2662 110.131C81.3962 110.251 81.4612 110.441 81.4612 110.701V116.701C81.4612 117.211 81.2162 117.466 80.7262 117.466C80.4962 117.466 80.3162 117.401 80.1862 117.271C80.0562 117.131 79.9912 116.941 79.9912 116.701V115.426L80.1862 115.756C79.9862 116.316 79.6662 116.746 79.2262 117.046C78.7862 117.346 78.2662 117.496 77.6662 117.496ZM86.8213 117.496C86.0713 117.496 85.4213 117.341 84.8713 117.031C84.3313 116.711 83.9113 116.266 83.6113 115.696C83.3113 115.116 83.1613 114.436 83.1613 113.656C83.1613 113.076 83.2463 112.556 83.4163 112.096C83.5863 111.626 83.8263 111.231 84.1363 110.911C84.4563 110.591 84.8413 110.346 85.2913 110.176C85.7513 109.996 86.2613 109.906 86.8213 109.906C87.1713 109.906 87.5363 109.961 87.9163 110.071C88.3063 110.171 88.6663 110.341 88.9963 110.581C89.1263 110.661 89.2063 110.761 89.2363 110.881C89.2763 110.991 89.2813 111.106 89.2513 111.226C89.2313 111.346 89.1763 111.451 89.0863 111.541C89.0063 111.621 88.9063 111.671 88.7863 111.691C88.6663 111.701 88.5363 111.666 88.3963 111.586C88.1563 111.416 87.9113 111.296 87.6613 111.226C87.4113 111.146 87.1713 111.106 86.9412 111.106C86.5813 111.106 86.2613 111.166 85.9813 111.286C85.7113 111.396 85.4813 111.561 85.2913 111.781C85.1013 111.991 84.9563 112.256 84.8563 112.576C84.7663 112.896 84.7213 113.261 84.7213 113.671C84.7213 114.491 84.9113 115.136 85.2913 115.606C85.6813 116.066 86.2313 116.296 86.9412 116.296C87.1713 116.296 87.4113 116.261 87.6613 116.191C87.9113 116.121 88.1563 116.001 88.3963 115.831C88.5363 115.751 88.6663 115.721 88.7863 115.741C88.9063 115.761 89.0013 115.816 89.0713 115.906C89.1513 115.986 89.2013 116.086 89.2213 116.206C89.2513 116.316 89.2463 116.431 89.2063 116.551C89.1663 116.671 89.0813 116.771 88.9513 116.851C88.6313 117.081 88.2813 117.246 87.9013 117.346C87.5313 117.446 87.1713 117.496 86.8213 117.496ZM93.6767 117.496C92.9267 117.496 92.2767 117.341 91.7267 117.031C91.1867 116.711 90.7667 116.266 90.4667 115.696C90.1667 115.116 90.0167 114.436 90.0167 113.656C90.0167 113.076 90.1017 112.556 90.2717 112.096C90.4417 111.626 90.6817 111.231 90.9917 110.911C91.3117 110.591 91.6967 110.346 92.1467 110.176C92.6067 109.996 93.1167 109.906 93.6767 109.906C94.0267 109.906 94.3917 109.961 94.7717 110.071C95.1617 110.171 95.5217 110.341 95.8517 110.581C95.9817 110.661 96.0617 110.761 96.0917 110.881C96.1317 110.991 96.1367 111.106 96.1067 111.226C96.0867 111.346 96.0317 111.451 95.9417 111.541C95.8617 111.621 95.7617 111.671 95.6417 111.691C95.5217 111.701 95.3917 111.666 95.2517 111.586C95.0117 111.416 94.7667 111.296 94.5167 111.226C94.2667 111.146 94.0267 111.106 93.7967 111.106C93.4367 111.106 93.1167 111.166 92.8367 111.286C92.5667 111.396 92.3367 111.561 92.1467 111.781C91.9567 111.991 91.8117 112.256 91.7117 112.576C91.6217 112.896 91.5767 113.261 91.5767 113.671C91.5767 114.491 91.7667 115.136 92.1467 115.606C92.5367 116.066 93.0867 116.296 93.7967 116.296C94.0267 116.296 94.2667 116.261 94.5167 116.191C94.7667 116.121 95.0117 116.001 95.2517 115.831C95.3917 115.751 95.5217 115.721 95.6417 115.741C95.7617 115.761 95.8567 115.816 95.9267 115.906C96.0067 115.986 96.0567 116.086 96.0767 116.206C96.1067 116.316 96.1017 116.431 96.0617 116.551C96.0217 116.671 95.9367 116.771 95.8067 116.851C95.4867 117.081 95.1367 117.246 94.7567 117.346C94.3867 117.446 94.0267 117.496 93.6767 117.496ZM100.742 117.496C99.9422 117.496 99.2522 117.346 98.6722 117.046C98.1022 116.736 97.6572 116.301 97.3372 115.741C97.0272 115.171 96.8722 114.496 96.8722 113.716C96.8722 112.956 97.0272 112.291 97.3372 111.721C97.6472 111.151 98.0722 110.706 98.6122 110.386C99.1522 110.066 99.7672 109.906 100.457 109.906C100.967 109.906 101.422 109.991 101.822 110.161C102.222 110.321 102.562 110.561 102.842 110.881C103.132 111.191 103.347 111.571 103.487 112.021C103.637 112.471 103.712 112.976 103.712 113.536C103.712 113.706 103.662 113.836 103.562 113.926C103.462 114.006 103.312 114.046 103.112 114.046H98.0722V113.116H102.692L102.437 113.326C102.437 112.826 102.362 112.401 102.212 112.051C102.072 111.701 101.857 111.436 101.567 111.256C101.287 111.066 100.937 110.971 100.517 110.971C100.047 110.971 99.6472 111.081 99.3172 111.301C98.9972 111.521 98.7522 111.826 98.5822 112.216C98.4122 112.606 98.3272 113.061 98.3272 113.581V113.671C98.3272 114.551 98.5322 115.216 98.9422 115.666C99.3622 116.106 99.9672 116.326 100.757 116.326C101.057 116.326 101.372 116.286 101.702 116.206C102.042 116.126 102.362 115.991 102.662 115.801C102.832 115.701 102.982 115.656 103.112 115.666C103.252 115.676 103.362 115.721 103.442 115.801C103.532 115.881 103.587 115.981 103.607 116.101C103.627 116.221 103.607 116.346 103.547 116.476C103.487 116.596 103.382 116.706 103.232 116.806C102.892 117.036 102.497 117.211 102.047 117.331C101.597 117.441 101.162 117.496 100.742 117.496ZM107.929 117.496C107.489 117.496 107.034 117.446 106.564 117.346C106.104 117.246 105.679 117.076 105.289 116.836C105.159 116.746 105.069 116.646 105.019 116.536C104.969 116.426 104.949 116.316 104.959 116.206C104.979 116.086 105.024 115.986 105.094 115.906C105.174 115.816 105.269 115.761 105.379 115.741C105.499 115.721 105.624 115.746 105.754 115.816C106.144 116.036 106.519 116.191 106.879 116.281C107.239 116.361 107.594 116.401 107.944 116.401C108.474 116.401 108.874 116.306 109.144 116.116C109.414 115.926 109.549 115.671 109.549 115.351C109.549 115.091 109.459 114.891 109.279 114.751C109.099 114.601 108.829 114.486 108.469 114.406L107.044 114.121C106.424 113.991 105.954 113.761 105.634 113.431C105.314 113.101 105.154 112.681 105.154 112.171C105.154 111.711 105.279 111.311 105.529 110.971C105.779 110.631 106.129 110.371 106.579 110.191C107.029 110.001 107.549 109.906 108.139 109.906C108.579 109.906 108.994 109.961 109.384 110.071C109.774 110.181 110.134 110.346 110.464 110.566C110.594 110.636 110.679 110.731 110.719 110.851C110.759 110.961 110.764 111.071 110.734 111.181C110.714 111.291 110.664 111.391 110.584 111.481C110.504 111.561 110.404 111.611 110.284 111.631C110.174 111.641 110.049 111.611 109.909 111.541C109.609 111.351 109.309 111.216 109.009 111.136C108.719 111.056 108.429 111.016 108.139 111.016C107.609 111.016 107.209 111.116 106.939 111.316C106.679 111.506 106.549 111.766 106.549 112.096C106.549 112.346 106.629 112.551 106.789 112.711C106.949 112.871 107.199 112.986 107.539 113.056L108.964 113.341C109.614 113.471 110.104 113.691 110.434 114.001C110.774 114.311 110.944 114.731 110.944 115.261C110.944 115.951 110.669 116.496 110.119 116.896C109.569 117.296 108.839 117.496 107.929 117.496ZM115.194 117.496C114.754 117.496 114.299 117.446 113.829 117.346C113.369 117.246 112.944 117.076 112.554 116.836C112.424 116.746 112.334 116.646 112.284 116.536C112.234 116.426 112.214 116.316 112.224 116.206C112.244 116.086 112.289 115.986 112.359 115.906C112.439 115.816 112.534 115.761 112.644 115.741C112.764 115.721 112.889 115.746 113.019 115.816C113.409 116.036 113.784 116.191 114.144 116.281C114.504 116.361 114.859 116.401 115.209 116.401C115.739 116.401 116.139 116.306 116.409 116.116C116.679 115.926 116.814 115.671 116.814 115.351C116.814 115.091 116.724 114.891 116.544 114.751C116.364 114.601 116.094 114.486 115.734 114.406L114.309 114.121C113.689 113.991 113.219 113.761 112.899 113.431C112.579 113.101 112.419 112.681 112.419 112.171C112.419 111.711 112.544 111.311 112.794 110.971C113.044 110.631 113.394 110.371 113.844 110.191C114.294 110.001 114.814 109.906 115.404 109.906C115.844 109.906 116.259 109.961 116.649 110.071C117.039 110.181 117.399 110.346 117.729 110.566C117.859 110.636 117.944 110.731 117.984 110.851C118.024 110.961 118.029 111.071 117.999 111.181C117.979 111.291 117.929 111.391 117.849 111.481C117.769 111.561 117.669 111.611 117.549 111.631C117.439 111.641 117.314 111.611 117.174 111.541C116.874 111.351 116.574 111.216 116.274 111.136C115.984 111.056 115.694 111.016 115.404 111.016C114.874 111.016 114.474 111.116 114.204 111.316C113.944 111.506 113.814 111.766 113.814 112.096C113.814 112.346 113.894 112.551 114.054 112.711C114.214 112.871 114.464 112.986 114.804 113.056L116.229 113.341C116.879 113.471 117.369 113.691 117.699 114.001C118.039 114.311 118.209 114.731 118.209 115.261C118.209 115.951 117.934 116.496 117.384 116.896C116.834 117.296 116.104 117.496 115.194 117.496ZM121.095 117.466C120.855 117.466 120.665 117.401 120.525 117.271C120.395 117.131 120.33 116.941 120.33 116.701V111.211H119.49C119.3 111.211 119.15 111.161 119.04 111.061C118.93 110.951 118.875 110.806 118.875 110.626C118.875 110.436 118.93 110.291 119.04 110.191C119.15 110.091 119.3 110.041 119.49 110.041H120.765L120.33 110.446V109.906C120.33 108.916 120.575 108.171 121.065 107.671C121.555 107.161 122.27 106.861 123.21 106.771L123.675 106.741C123.845 106.721 123.98 106.746 124.08 106.816C124.18 106.886 124.245 106.976 124.275 107.086C124.305 107.196 124.305 107.311 124.275 107.431C124.255 107.541 124.205 107.641 124.125 107.731C124.045 107.821 123.945 107.871 123.825 107.881L123.54 107.896C122.95 107.946 122.52 108.116 122.25 108.406C121.98 108.686 121.845 109.116 121.845 109.696V110.281L121.635 110.041H123.3C123.51 110.041 123.665 110.091 123.765 110.191C123.875 110.291 123.93 110.436 123.93 110.626C123.93 110.806 123.875 110.951 123.765 111.061C123.665 111.161 123.51 111.211 123.3 111.211H121.845V116.701C121.845 117.211 121.595 117.466 121.095 117.466ZM127.705 117.496C127.115 117.496 126.62 117.386 126.22 117.166C125.83 116.946 125.535 116.621 125.335 116.191C125.145 115.751 125.05 115.201 125.05 114.541V110.701C125.05 110.441 125.115 110.251 125.245 110.131C125.375 110.001 125.56 109.936 125.8 109.936C126.04 109.936 126.225 110.001 126.355 110.131C126.495 110.251 126.565 110.441 126.565 110.701V114.556C126.565 115.146 126.685 115.581 126.925 115.861C127.165 116.141 127.545 116.281 128.065 116.281C128.635 116.281 129.095 116.091 129.445 115.711C129.805 115.321 129.985 114.811 129.985 114.181V110.701C129.985 110.441 130.05 110.251 130.18 110.131C130.31 110.001 130.5 109.936 130.75 109.936C130.99 109.936 131.175 110.001 131.305 110.131C131.435 110.251 131.5 110.441 131.5 110.701V116.701C131.5 117.211 131.255 117.466 130.765 117.466C130.535 117.466 130.355 117.401 130.225 117.271C130.095 117.131 130.03 116.941 130.03 116.701V115.426L130.225 115.756C130.025 116.316 129.705 116.746 129.265 117.046C128.825 117.346 128.305 117.496 127.705 117.496ZM135.99 117.496C135.21 117.496 134.62 117.271 134.22 116.821C133.83 116.361 133.635 115.701 133.635 114.841V107.446C133.635 107.196 133.7 107.006 133.83 106.876C133.96 106.746 134.145 106.681 134.385 106.681C134.625 106.681 134.81 106.746 134.94 106.876C135.08 107.006 135.15 107.196 135.15 107.446V114.751C135.15 115.251 135.25 115.626 135.45 115.876C135.66 116.116 135.96 116.236 136.35 116.236C136.44 116.236 136.52 116.236 136.59 116.236C136.66 116.226 136.73 116.216 136.8 116.206C136.92 116.196 137.005 116.231 137.055 116.311C137.105 116.381 137.13 116.531 137.13 116.761C137.13 116.971 137.085 117.136 136.995 117.256C136.905 117.366 136.76 117.436 136.56 117.466C136.47 117.476 136.375 117.481 136.275 117.481C136.175 117.491 136.08 117.496 135.99 117.496Z" fill="#00C920"/>
</svg>
