<svg width="31" height="32" viewBox="0 0 31 32" fill="none" xmlns="http://www.w3.org/2000/svg">
<g filter="url(#filter0_d_99_5753)">
<path d="M3 14.0625C3 14.4045 3.06734 14.7431 3.19818 15.0591C3.32901 15.375 3.52078 15.6621 3.76253 15.9039C4.00428 16.1457 4.29128 16.3375 4.60714 16.4684C4.923 16.5993 5.26154 16.6666 5.60343 16.6666H9.80639L14.2072 23.4239C14.4781 23.9045 14.8723 24.304 15.3493 24.5811C15.8262 24.8582 16.3685 25.0028 16.92 25C17.3625 25.0001 17.7985 24.8929 18.1905 24.6876C18.5826 24.4823 18.919 24.185 19.1711 23.8212C19.4231 23.4573 19.5832 23.0378 19.6377 22.5985C19.6922 22.1593 19.6394 21.7133 19.4838 21.2989L17.5594 16.6666H21.7447C22.479 16.6667 23.2002 16.4726 23.8354 16.104C24.4705 15.7354 24.9969 15.2054 25.3613 14.5677L27.7846 10.5833C27.8881 10.4113 27.9562 10.2203 27.9847 10.0216C28.0133 9.82289 28.0017 9.62045 27.9508 9.42626C27.8998 9.23207 27.8105 9.05006 27.688 8.89098C27.5656 8.73189 27.4125 8.59895 27.2379 8.5C26.9607 8.35466 26.6445 8.30154 26.3351 8.34837C26.0257 8.39521 25.7393 8.53955 25.5175 8.76042L24.0419 10.2375C23.2609 11.019 22.2016 11.4581 21.0969 11.4583H5.60343C5.26154 11.4583 4.923 11.5257 4.60714 11.6566C4.29128 11.7874 4.00428 11.9793 3.76253 12.2211C3.52078 12.4629 3.32901 12.75 3.19818 13.0659C3.06734 13.3819 3 13.7205 3 14.0625ZM9.52835 9.375L14.2145 1.57607C14.485 1.09587 14.8788 0.696619 15.3551 0.419556C15.8315 0.142492 16.3731 -0.00233723 16.9242 2.85252e-05C17.3666 0.000149033 17.8024 0.107483 18.1943 0.312848C18.5862 0.518213 18.9226 0.815494 19.1746 1.17925C19.4266 1.54302 19.5867 1.96243 19.6413 2.40161C19.6959 2.84078 19.6433 3.28665 19.488 3.70106L17.2824 9.375H9.52835Z" fill="url(#paint0_linear_99_5753)"/>
</g>
<defs>
<filter id="filter0_d_99_5753" x="0" y="0" width="31" height="32" filterUnits="userSpaceOnUse" color-interpolation-filters="sRGB">
<feFlood flood-opacity="0" result="BackgroundImageFix"/>
<feColorMatrix in="SourceAlpha" type="matrix" values="0 0 0 0 0 0 0 0 0 0 0 0 0 0 0 0 0 0 127 0" result="hardAlpha"/>
<feOffset dy="4"/>
<feGaussianBlur stdDeviation="1.5"/>
<feComposite in2="hardAlpha" operator="out"/>
<feColorMatrix type="matrix" values="0 0 0 0 0.705882 0 0 0 0 0.964706 0 0 0 0 1 0 0 0 0.46 0"/>
<feBlend mode="normal" in2="BackgroundImageFix" result="effect1_dropShadow_99_5753"/>
<feBlend mode="normal" in="SourceGraphic" in2="effect1_dropShadow_99_5753" result="shape"/>
</filter>
<linearGradient id="paint0_linear_99_5753" x1="27.4809" y1="-4.43039" x2="1.44995" y2="-3.19359" gradientUnits="userSpaceOnUse">
<stop stop-color="#3BDAFF"/>
<stop offset="1" stop-color="#0B9BFF"/>
</linearGradient>
</defs>
</svg>
