<svg width="24" height="24" viewBox="0 0 24 24" fill="none" xmlns="http://www.w3.org/2000/svg">
<path d="M12 14.0211C11.2375 14.0211 10.5062 14.3277 9.96707 14.8735C9.4279 15.4193 9.125 16.1595 9.125 16.9313V23.7471H14.875V16.9313C14.875 16.1595 14.5721 15.4193 14.0329 14.8735C13.4938 14.3277 12.7625 14.0211 12 14.0211Z" fill="#797979"/>
<path d="M13.2823 1.24811C12.9303 0.927438 12.4735 0.75 12 0.75C11.5265 0.75 11.0697 0.927438 10.7177 1.24811L0.5 10.557V20.6458C0.5 21.4691 0.823094 22.2586 1.39821 22.8408C1.97332 23.4229 2.75334 23.75 3.56667 23.75H7.20833V16.9313C7.20833 15.6449 7.71317 14.4112 8.61178 13.5016C9.51039 12.592 10.7292 12.081 12 12.081C13.2708 12.081 14.4896 12.592 15.3882 13.5016C16.2868 14.4112 16.7917 15.6449 16.7917 16.9313V23.7471H20.4333C21.2467 23.7471 22.0267 23.42 22.6018 22.8379C23.1769 22.2557 23.5 21.4661 23.5 20.6428V10.5541L13.2823 1.24811Z" fill="#797979"/>
</svg>
