<svg width="23" height="24" viewBox="0 0 23 24" fill="none" xmlns="http://www.w3.org/2000/svg">
<path d="M11.5001 13.5212C10.7376 13.5212 10.0063 13.8278 9.46712 14.3735C8.92796 14.9193 8.62506 15.6595 8.62506 16.4314V23.2471H14.3751V16.4314C14.3751 15.6595 14.0722 14.9193 13.533 14.3735C12.9938 13.8278 12.2626 13.5212 11.5001 13.5212Z" fill="url(#paint0_linear_881_8705)"/>
<path d="M12.7823 0.74811C12.4303 0.427438 11.9735 0.25 11.5 0.25C11.0265 0.25 10.5697 0.427438 10.2177 0.74811L0 10.057V20.1458C0 20.9691 0.323094 21.7586 0.898206 22.3408C1.47332 22.9229 2.25334 23.25 3.06667 23.25H6.70833V16.4313C6.70833 15.1449 7.21317 13.9112 8.11178 13.0016C9.01039 12.092 10.2292 11.581 11.5 11.581C12.7708 11.581 13.9896 12.092 14.8882 13.0016C15.7868 13.9112 16.2917 15.1449 16.2917 16.4313V23.2471H19.9333C20.7467 23.2471 21.5267 22.92 22.1018 22.3379C22.6769 21.7557 23 20.9661 23 20.1428V10.0541L12.7823 0.74811Z" fill="url(#paint1_linear_881_8705)"/>
<defs>
<linearGradient id="paint0_linear_881_8705" x1="0.477554" y1="-3.82596" x2="24.426" y2="-2.6881" gradientUnits="userSpaceOnUse">
<stop stop-color="#3BDAFF"/>
<stop offset="1" stop-color="#0B9BFF"/>
</linearGradient>
<linearGradient id="paint1_linear_881_8705" x1="0.477554" y1="-3.82596" x2="24.426" y2="-2.6881" gradientUnits="userSpaceOnUse">
<stop stop-color="#3BDAFF"/>
<stop offset="1" stop-color="#0B9BFF"/>
</linearGradient>
</defs>
</svg>
