<svg width="26" height="26" viewBox="0 0 26 26" fill="none" xmlns="http://www.w3.org/2000/svg">
<path d="M21.4785 0.75C19.2578 0.75 17.457 2.55351 17.457 4.77904C17.457 7.00457 19.2572 8.80808 21.4785 8.80808C23.6999 8.80808 25.5 7.00457 25.5 4.77904C25.5 2.55351 23.6999 0.75 21.4785 0.75ZM23.2415 5.32303C23.1647 5.35825 23.0846 5.35825 23.0052 5.35825C22.4844 5.35955 21.9642 5.36151 21.4434 5.35825C21.1029 5.35629 20.9323 5.1841 20.9297 4.841C20.9264 4.43138 20.929 4.02111 20.929 3.61149C20.929 3.22013 20.9284 2.82877 20.929 2.43741C20.9297 2.07018 21.0931 1.87255 21.3939 1.8719C21.6888 1.8719 21.8685 2.08323 21.8691 2.4348C21.8704 3.04336 21.8737 3.65193 21.8659 4.26049C21.8639 4.39485 21.9036 4.42355 22.0306 4.42029C22.3652 4.41116 22.6999 4.41247 23.0345 4.41899C23.278 4.42355 23.4694 4.57879 23.5098 4.78556C23.5553 5.01972 23.4492 5.22714 23.2415 5.32238V5.32303Z" fill="#797979"/>
<path d="M25.5001 19.4994H7.6902C7.6863 19.41 7.67914 19.3317 7.67914 19.2535C7.67914 17.765 7.67653 16.2759 7.67914 14.7874C7.68174 13.1091 8.9988 11.7909 10.6811 11.7831C11.6075 11.7785 12.534 11.7824 13.4884 11.7824C13.4936 11.6846 13.5027 11.5991 13.5027 11.5143C13.504 10.8882 13.5014 10.2613 13.504 9.63517C13.506 9.05726 13.8022 8.75983 14.3725 8.75983C15.853 8.75983 17.3334 8.75983 18.8139 8.75983C19.3712 8.75983 19.672 9.05791 19.6752 9.61755C19.6785 10.2437 19.6759 10.8706 19.6759 11.4967C19.6759 11.5841 19.6759 11.6709 19.6759 11.7824C19.9383 11.7824 20.172 11.7824 20.4057 11.7824C21.1218 11.7824 21.8373 11.7772 22.5535 11.7837C23.9487 11.7968 25.1576 12.796 25.4448 14.1632C25.4597 14.2336 25.4812 14.3021 25.5001 14.3719V19.4987V19.4994ZM15.0307 10.279V11.7694H18.1492V10.279H15.0307Z" fill="#797979"/>
<path d="M0.5 9.97759C0.54362 9.83213 0.583984 9.68603 0.63151 9.54187C1.01172 8.39063 2.0306 7.66988 3.30794 7.65096C3.68099 7.64509 4.05404 7.65031 4.45964 7.65031C4.45964 7.53681 4.45964 7.44224 4.45964 7.34766C4.45964 5.43587 4.45964 3.52408 4.45964 1.61229C4.45964 1.01678 4.72656 0.75 5.32096 0.75C6.89128 0.75 8.46094 0.75 10.0312 0.75C10.6315 0.75 10.8965 1.01221 10.8971 1.60577C10.8971 3.50973 10.8971 5.41304 10.8971 7.317C10.8971 7.41354 10.8971 7.51072 10.8971 7.62617C11.5514 7.65096 12.1947 7.67509 12.8379 7.69988C12.8587 7.72532 12.8796 7.75141 12.9004 7.77685C12.0553 8.43955 11.9961 9.35141 12.0729 10.3174C11.5775 10.3174 11.1243 10.3168 10.6706 10.3174C8.7474 10.322 7.03125 11.5535 6.45312 13.3889C6.30924 13.8468 6.22786 14.3432 6.22396 14.8233C6.20247 17.4506 6.21029 20.0786 6.21484 22.7065C6.2168 23.7841 6.55273 24.7488 7.23763 25.5869C7.27734 25.6352 7.30338 25.6946 7.33529 25.7487H2.89258C2.85547 25.7337 2.81901 25.7115 2.7806 25.705C2.05534 25.5856 1.48307 25.2197 1.03451 24.6431C0.748698 24.2752 0.619792 23.8428 0.5 23.4045C0.5 18.9286 0.5 14.4528 0.5 9.97628V9.97759ZM9.4388 2.19607H5.92904V7.63335H9.4388V2.19607Z" fill="#797979"/>
<path d="M10.2656 25.75C9.86129 25.5902 9.42248 25.4871 9.0605 25.2601C8.16662 24.7005 7.70504 23.861 7.6816 22.7998C7.66858 22.2089 7.67899 21.6172 7.67899 20.9989C7.79032 20.9989 7.87756 20.9989 7.96415 20.9989C13.7285 20.9989 19.4928 20.9989 25.2571 20.9989C25.3378 20.9989 25.4186 21.008 25.5 21.0126V23.1612C25.4837 23.2062 25.4622 23.2505 25.4524 23.2968C25.2168 24.4174 24.5553 25.1754 23.4915 25.5837C23.3046 25.6554 23.1054 25.6946 22.9121 25.7493H10.2656V25.75Z" fill="#797979"/>
</svg>
